<?xml version="1.0" encoding="UTF-8" standalone="no"?>
<!DOCTYPE svg PUBLIC "-//W3C//DTD SVG 1.1//EN" "http://www.w3.org/Graphics/SVG/1.1/DTD/svg11.dtd">
<svg width="100%" height="100%" viewBox="0 0 840 840" version="1.1" xmlns="http://www.w3.org/2000/svg" xmlns:xlink="http://www.w3.org/1999/xlink" xml:space="preserve" xmlns:serif="http://www.serif.com/" style="fill-rule:evenodd;clip-rule:evenodd;">
    <g transform="matrix(1.41111,0,0,0.997755,0,0)">
        <g transform="matrix(0.708662,0,0,1.00225,0,0)">
            <path d="M135.131,142.042L11.871,17.788L135.131,142.042Z" style="fill:rgba(165,178,222,0.1);stroke:rgba(0,0,0,0.2);stroke-width:0.72px;"/>
        </g>
        <g transform="matrix(0.708662,0,0,1.00225,0,0)">
            <path d="M700.904,136.089L825.158,12.829L700.904,136.089Z" style="fill:rgba(165,178,222,0.1);stroke:rgba(0,0,0,0.2);stroke-width:0.72px;"/>
        </g>
        <g transform="matrix(0.708662,0,0,1.00225,0,0)">
            <path d="M706.857,703.85L830.117,828.103L706.857,703.85Z" style="fill:rgba(165,178,222,0.1);stroke:rgba(0,0,0,0.2);stroke-width:0.72px;"/>
        </g>
        <g transform="matrix(0.708662,0,0,1.00225,0,0)">
            <path d="M139.096,707.815L14.842,831.075L139.096,707.815Z" style="fill:rgba(165,178,222,0.1);stroke:rgba(0,0,0,0.2);stroke-width:0.72px;"/>
        </g>
        <g transform="matrix(0.708662,0,0,1.00225,0,0)">
            <path d="M64.774,233.54L65.711,232.587L66.681,231.674L67.682,230.799L68.714,229.963L69.776,229.166L70.866,228.406L73.13,227L75.498,225.743L77.963,224.634L80.517,223.67L83.152,222.849L85.862,222.169L88.637,221.629L91.472,221.226L94.359,220.958L97.289,220.824L100.256,220.821L103.251,220.947L106.269,221.2L109.3,221.578L112.337,222.08L115.373,222.703L118.401,223.445L121.412,224.304L124.4,225.279L127.356,226.366L130.274,227.565L133.146,228.874L135.963,230.289L138.72,231.809L141.407,233.433L144.019,235.158L146.546,236.982L148.982,238.903L151.319,240.919L113.77,175.042L110.683,174.034L107.58,173.149L104.464,172.385L101.338,171.743L98.205,171.221L95.069,170.817L91.932,170.531L88.798,170.363L85.668,170.31L82.547,170.372L79.438,170.548L76.343,170.836L73.266,171.237L70.209,171.749L67.177,172.37L64.17,173.101L61.194,173.939L58.25,174.884L55.342,175.935L52.473,177.091L49.646,178.351L46.864,179.714L44.13,181.179L41.447,182.744L38.818,184.41L36.247,186.174L33.735,188.036L31.287,189.996L28.905,192.051L26.592,194.201L24.352,196.445L22.187,198.782L20.158,201.17L18.238,203.657L16.429,206.232L14.728,208.886L13.136,211.608L11.652,214.389L10.276,217.219L9.007,220.089L7.793,223.089L6.667,226.113L5.629,229.159L4.679,232.224L3.817,235.308L3.043,238.408L2.357,241.523L1.758,244.65L1.247,247.787L0.823,250.934L0.487,254.087L0.238,257.246L0.075,260.408L0,263.572L0.012,266.735L0.11,269.895L0.295,273.052L0.567,276.203L0.925,279.346L1.369,282.479L1.9,285.6L2.516,288.709L3.219,291.802L4.008,294.878L4.882,297.935L5.843,300.971L6.888,303.985L8.02,306.974L9.236,309.936L10.539,312.871L11.926,315.776L13.398,318.648L15.001,321.528L16.716,324.347L18.535,327.106L20.45,329.802L22.452,332.437L24.533,335.009L26.685,337.518L28.898,339.963L32.197,343.422L35.576,346.785L39.034,350.052L42.569,353.221L46.178,356.291L49.859,359.262L53.611,362.132L57.431,364.9L61.316,367.566L65.265,370.128L69.276,372.586L73.346,374.938L77.473,377.184L81.655,379.321L85.89,381.351L90.175,383.271L94.509,385.08L98.889,386.777L103.314,388.363L107.78,389.834L112.286,391.191L116.83,392.433L121.409,393.558L126.022,394.565L130.666,395.454L135.338,396.224L140.038,396.873L144.762,397.401L149.508,397.806L154.275,398.088L159.06,398.245L163.861,398.277L269.995,386.657L270.49,379.105L237.657,374.832L233.073,375.25L228.37,375.611L223.579,375.895L218.732,376.077L213.859,376.137L208.992,376.051L204.163,375.799L201.772,375.603L199.402,375.356L197.057,375.057L194.742,374.702L192.459,374.289L190.213,373.814L188.007,373.276L185.847,372.67L183.734,371.995L181.675,371.248L179.672,370.425L177.729,369.525L175.85,368.544L174.039,367.479L172.301,366.328L170.639,365.088L169.056,363.757L167.558,362.331L150.277,290.541L117.196,362.811L64.011,334.565L62.089,331.662L60.271,328.672L58.558,325.603L56.953,322.46L55.459,319.252L54.076,315.986L52.808,312.667L51.657,309.304L50.624,305.904L49.713,302.473L48.925,299.018L48.262,295.548L47.728,292.068L47.323,288.585L47.05,285.107L46.912,281.642L46.91,278.195L47.047,274.773L47.325,271.385L47.747,268.037L48.313,264.736L49.027,261.488L49.891,258.302L50.908,255.184L52.078,252.142L53.405,249.181L54.89,246.31L55.693,244.91L56.536,243.535L57.42,242.186L58.346,240.864L59.312,239.569L60.32,238.302L61.37,237.066L62.463,235.859L63.597,234.683L64.774,233.54Z" style="fill:rgba(165,178,222,0.1);stroke:rgba(0,0,0,0.2);stroke-width:0.72px;"/>
        </g>
        <g transform="matrix(0.708662,0,0,1.00225,0,0)">
            <path d="M64.774,608.376L65.711,609.328L66.681,610.242L67.682,611.116L68.714,611.952L69.776,612.75L70.866,613.509L73.13,614.915L75.498,616.172L77.963,617.281L80.517,618.246L83.152,619.066L85.862,619.746L88.637,620.286L91.472,620.689L94.359,620.957L97.289,621.092L100.256,621.095L103.251,620.969L106.269,620.716L109.3,620.337L112.337,619.836L115.373,619.213L118.401,618.471L121.412,617.611L124.4,616.637L127.356,615.549L130.274,614.35L133.146,613.042L135.963,611.627L138.72,610.106L141.407,608.482L144.019,606.758L146.546,604.934L148.982,603.012L151.319,600.996L113.77,666.874L110.683,667.882L107.58,668.767L104.464,669.53L101.338,670.172L98.205,670.695L95.069,671.098L91.932,671.384L88.798,671.553L85.668,671.606L82.547,671.544L79.438,671.368L76.343,671.079L73.266,670.678L70.209,670.167L67.177,669.545L64.17,668.815L61.194,667.977L58.25,667.031L55.342,665.98L52.473,664.824L49.646,663.564L46.864,662.202L44.13,660.737L41.447,659.171L38.818,657.506L36.247,655.741L33.735,653.879L31.287,651.92L28.905,649.865L26.592,647.715L24.352,645.471L22.187,643.134L20.158,640.745L18.238,638.258L16.429,635.683L14.728,633.03L13.136,630.307L11.652,627.526L10.276,624.696L9.007,621.827L7.793,618.826L6.667,615.803L5.629,612.757L4.679,609.691L3.817,606.607L3.043,603.507L2.357,600.393L1.758,597.266L1.247,594.128L0.823,590.982L0.487,587.828L0.238,584.669L0.075,581.507L0,578.344L0.012,575.181L0.11,572.02L0.295,568.863L0.567,565.713L0.925,562.57L1.369,559.437L1.9,556.315L2.516,553.207L3.219,550.114L4.008,547.038L4.882,543.981L5.843,540.945L6.888,537.931L8.02,534.942L9.236,531.979L10.539,529.044L11.926,526.14L13.398,523.267L15.001,520.387L16.716,517.568L18.535,514.81L20.45,512.113L22.452,509.479L24.533,506.907L26.685,504.398L28.898,501.952L32.197,498.493L35.576,495.13L39.034,491.864L42.569,488.695L46.178,485.624L49.859,482.654L53.611,479.784L57.431,477.015L61.316,474.349L65.265,471.787L69.276,469.329L73.346,466.977L77.473,464.732L81.655,462.594L85.89,460.565L90.175,458.645L94.509,456.836L98.889,455.138L103.314,453.553L107.78,452.081L112.286,450.724L116.83,449.483L121.409,448.358L126.022,447.35L130.666,446.461L135.338,445.691L140.038,445.042L144.762,444.515L149.508,444.109L154.275,443.828L159.06,443.67L163.861,443.638L269.995,455.258L270.49,462.81L237.657,467.084L233.073,466.666L228.37,466.304L223.579,466.021L218.732,465.838L213.859,465.779L208.992,465.864L204.163,466.117L201.772,466.313L199.402,466.559L197.057,466.858L194.742,467.213L192.459,467.626L190.213,468.101L188.007,468.64L185.847,469.245L183.734,469.92L181.675,470.668L179.672,471.49L177.729,472.391L175.85,473.372L174.039,474.436L172.301,475.587L170.639,476.827L169.056,478.159L167.558,479.585L150.277,551.374L117.196,479.104L64.011,507.35L62.089,510.253L60.271,513.243L58.558,516.313L56.953,519.455L55.459,522.663L54.076,525.93L52.808,529.248L51.657,532.611L50.624,536.012L49.713,539.443L48.925,542.897L48.262,546.368L47.728,549.848L47.323,553.33L47.05,556.808L46.912,560.274L46.91,563.721L47.047,567.142L47.325,570.53L47.747,573.879L48.313,577.18L49.027,580.427L49.891,583.613L50.908,586.731L52.078,589.774L53.405,592.734L54.89,595.606L55.693,597.005L56.536,598.38L57.42,599.73L58.346,601.052L59.312,602.347L60.32,603.613L61.37,604.85L62.463,606.057L63.597,607.232L64.774,608.376Z" style="fill:rgba(165,178,222,0.1);stroke:rgba(0,0,0,0.2);stroke-width:0.72px;"/>
        </g>
        <g transform="matrix(0.708662,0,0,1.00225,0,0)">
            <path d="M775.226,608.376L774.289,609.328L773.319,610.242L772.318,611.116L771.286,611.952L770.224,612.75L769.134,613.509L766.87,614.915L764.502,616.172L762.037,617.281L759.483,618.246L756.848,619.066L754.139,619.746L751.363,620.286L748.528,620.689L745.641,620.957L742.711,621.092L739.744,621.095L736.749,620.969L733.731,620.716L730.7,620.337L727.663,619.836L724.627,619.213L721.599,618.471L718.588,617.611L715.6,616.637L712.644,615.549L709.726,614.35L706.854,613.042L704.037,611.627L701.28,610.106L698.593,608.482L695.981,606.758L693.454,604.934L691.018,603.012L688.681,600.996L726.23,666.874L729.317,667.882L732.42,668.767L735.536,669.53L738.662,670.172L741.795,670.695L744.931,671.098L748.068,671.384L751.203,671.553L754.332,671.606L757.453,671.544L760.562,671.368L763.657,671.079L766.734,670.678L769.791,670.167L772.824,669.545L775.83,668.815L778.806,667.977L781.75,667.031L784.658,665.98L787.527,664.824L790.354,663.564L793.136,662.202L795.87,660.737L798.553,659.171L801.182,657.506L803.753,655.741L806.265,653.879L808.713,651.92L811.095,649.865L813.408,647.715L815.648,645.471L817.813,643.134L819.842,640.745L821.762,638.258L823.572,635.683L825.272,633.03L826.864,630.307L828.348,627.526L829.724,624.696L830.993,621.827L832.207,618.826L833.333,615.803L834.371,612.757L835.321,609.691L836.182,606.607L836.957,603.507L837.643,600.393L838.242,597.266L838.753,594.128L839.177,590.982L839.513,587.828L839.762,584.669L839.925,581.507L840,578.344L839.988,575.181L839.89,572.02L839.705,568.863L839.433,565.713L839.075,562.57L838.631,559.437L838.1,556.315L837.484,553.207L836.781,550.114L835.992,547.038L835.118,543.981L834.157,540.945L833.112,537.931L831.98,534.942L830.764,531.979L829.461,529.044L828.074,526.14L826.602,523.267L824.999,520.387L823.284,517.568L821.465,514.81L819.55,512.113L817.548,509.479L815.467,506.907L813.315,504.398L811.102,501.952L807.803,498.493L804.424,495.13L800.966,491.864L797.431,488.695L793.822,485.624L790.141,482.654L786.389,479.784L782.569,477.015L778.684,474.349L774.735,471.787L770.724,469.329L766.654,466.977L762.527,464.732L758.345,462.594L754.11,460.565L749.825,458.645L745.491,456.836L741.111,455.138L736.686,453.553L732.22,452.081L727.714,450.724L723.17,449.483L718.591,448.358L713.978,447.35L709.334,446.461L704.662,445.691L699.962,445.042L695.238,444.515L690.492,444.109L685.725,443.828L680.94,443.67L676.139,443.638L570.005,455.258L569.51,462.81L602.343,467.084L606.927,466.666L611.63,466.304L616.421,466.021L621.268,465.838L626.141,465.779L631.008,465.864L635.837,466.117L638.228,466.313L640.598,466.559L642.943,466.858L645.258,467.213L647.541,467.626L649.787,468.101L651.993,468.64L654.153,469.245L656.266,469.92L658.325,470.668L660.328,471.49L662.271,472.391L664.15,473.372L665.961,474.436L667.699,475.587L669.361,476.827L670.944,478.159L672.442,479.585L689.723,551.374L722.805,479.104L775.989,507.35L777.911,510.253L779.729,513.243L781.442,516.313L783.047,519.455L784.542,522.663L785.924,525.93L787.192,529.248L788.343,532.611L789.376,536.012L790.287,539.443L791.075,542.897L791.738,546.368L792.272,549.848L792.677,553.33L792.95,556.808L793.088,560.274L793.09,563.721L792.953,567.142L792.675,570.53L792.253,573.879L791.687,577.18L790.973,580.427L790.109,583.613L789.092,586.731L787.922,589.774L786.595,592.734L785.11,595.606L784.307,597.005L783.464,598.38L782.579,599.73L781.654,601.052L780.688,602.347L779.68,603.613L778.63,604.85L777.537,606.057L776.403,607.232L775.226,608.376Z" style="fill:rgba(165,178,222,0.1);stroke:rgba(0,0,0,0.2);stroke-width:0.72px;"/>
        </g>
        <g transform="matrix(0.708662,0,0,1.00225,0,0)">
            <path d="M775.226,233.54L774.289,232.587L773.319,231.674L772.318,230.799L771.286,229.963L770.224,229.166L769.134,228.406L766.87,227L764.502,225.743L762.037,224.634L759.483,223.67L756.848,222.849L754.139,222.169L751.363,221.629L748.528,221.226L745.641,220.958L742.711,220.824L739.744,220.821L736.749,220.947L733.731,221.2L730.7,221.578L727.663,222.08L724.627,222.703L721.599,223.445L718.588,224.304L715.6,225.279L712.644,226.366L709.726,227.565L706.854,228.874L704.037,230.289L701.28,231.809L698.593,233.433L695.981,235.158L693.454,236.982L691.018,238.903L688.681,240.919L726.23,175.042L729.317,174.034L732.42,173.149L735.536,172.385L738.662,171.743L741.795,171.221L744.931,170.817L748.068,170.531L751.203,170.363L754.332,170.31L757.453,170.372L760.562,170.548L763.657,170.836L766.734,171.237L769.791,171.749L772.824,172.37L775.83,173.101L778.806,173.939L781.75,174.884L784.658,175.935L787.527,177.091L790.354,178.351L793.136,179.714L795.87,181.179L798.553,182.744L801.182,184.41L803.753,186.174L806.265,188.036L808.713,189.996L811.095,192.051L813.408,194.201L815.648,196.445L817.813,198.782L819.842,201.17L821.762,203.657L823.572,206.232L825.272,208.886L826.864,211.608L828.348,214.389L829.724,217.219L830.993,220.089L832.207,223.089L833.333,226.113L834.371,229.159L835.321,232.224L836.182,235.308L836.957,238.408L837.643,241.523L838.242,244.65L838.753,247.787L839.177,250.934L839.513,254.087L839.762,257.246L839.925,260.408L840,263.572L839.988,266.735L839.89,269.895L839.705,273.052L839.433,276.203L839.075,279.346L838.631,282.479L838.1,285.6L837.484,288.709L836.781,291.802L835.992,294.878L835.118,297.935L834.157,300.971L833.112,303.985L831.98,306.974L830.764,309.936L829.461,312.871L828.074,315.776L826.602,318.648L824.999,321.528L823.284,324.347L821.465,327.106L819.55,329.802L817.548,332.437L815.467,335.009L813.315,337.518L811.102,339.963L807.803,343.422L804.424,346.785L800.966,350.052L797.431,353.221L793.822,356.291L790.141,359.262L786.389,362.132L782.569,364.9L778.684,367.566L774.735,370.128L770.724,372.586L766.654,374.938L762.527,377.184L758.345,379.321L754.11,381.351L749.825,383.271L745.491,385.08L741.111,386.777L736.686,388.363L732.22,389.834L727.714,391.191L723.17,392.433L718.591,393.558L713.978,394.565L709.334,395.454L704.662,396.224L699.962,396.873L695.238,397.401L690.492,397.806L685.725,398.088L680.94,398.245L676.139,398.277L570.005,386.657L569.51,379.105L602.343,374.832L606.927,375.25L611.63,375.611L616.421,375.895L621.268,376.077L626.141,376.137L631.008,376.051L635.837,375.799L638.228,375.603L640.598,375.356L642.943,375.057L645.258,374.702L647.541,374.289L649.787,373.814L651.993,373.276L654.153,372.67L656.266,371.995L658.325,371.248L660.328,370.425L662.271,369.525L664.15,368.544L665.961,367.479L667.699,366.328L669.361,365.088L670.944,363.757L672.442,362.331L689.723,290.541L722.805,362.811L775.989,334.565L777.911,331.662L779.729,328.672L781.442,325.603L783.047,322.46L784.542,319.252L785.924,315.986L787.192,312.667L788.343,309.304L789.376,305.904L790.287,302.473L791.075,299.018L791.738,295.548L792.272,292.068L792.677,288.585L792.95,285.107L793.088,281.642L793.09,278.195L792.953,274.773L792.675,271.385L792.253,268.037L791.687,264.736L790.973,261.488L790.109,258.302L789.092,255.184L787.922,252.142L786.595,249.181L785.11,246.31L784.307,244.91L783.464,243.535L782.579,242.186L781.654,240.864L780.688,239.569L779.68,238.302L778.63,237.066L777.537,235.859L776.403,234.683L775.226,233.54Z" style="fill:rgba(165,178,222,0.1);stroke:rgba(0,0,0,0.2);stroke-width:0.72px;"/>
        </g>
        <g transform="matrix(0.708662,0,0,1.00225,0,0)">
            <path d="M234.663,68.776L233.71,69.713L232.797,70.683L231.922,71.684L231.086,72.716L230.289,73.778L229.529,74.868L228.123,77.132L226.866,79.5L225.757,81.965L224.793,84.519L223.972,87.154L223.292,89.863L222.752,92.639L222.349,95.474L222.081,98.36L221.947,101.291L221.944,104.258L222.07,107.253L222.323,110.27L222.701,113.301L223.203,116.339L223.826,119.375L224.568,122.403L225.427,125.414L226.402,128.402L227.49,131.358L228.688,134.276L229.997,137.147L231.412,139.965L232.932,142.722L234.556,145.409L236.281,148.02L238.105,150.548L240.026,152.984L242.043,155.321L176.165,117.772L175.157,114.685L174.272,111.581L173.508,108.466L172.866,105.34L172.344,102.207L171.94,99.071L171.654,95.934L171.486,92.799L171.433,89.67L171.495,86.549L171.671,83.44L171.96,80.345L172.36,77.268L172.872,74.211L173.493,71.178L174.224,68.172L175.062,65.196L176.007,62.252L177.058,59.344L178.214,56.475L179.474,53.648L180.837,50.866L182.302,48.132L183.867,45.449L185.533,42.82L187.297,40.248L189.16,37.737L191.119,35.289L193.174,32.907L195.324,30.594L197.568,28.354L199.905,26.189L202.294,24.16L204.78,22.24L207.355,20.43L210.009,18.73L212.731,17.138L215.512,15.654L218.342,14.278L221.212,13.009L224.212,11.795L227.236,10.669L230.282,9.631L233.347,8.681L236.431,7.819L239.531,7.045L242.646,6.359L245.773,5.76L248.91,5.249L252.057,4.825L255.211,4.489L258.369,4.239L261.531,4.077L264.695,4.002L267.858,4.013L271.018,4.112L274.175,4.297L277.326,4.568L280.469,4.926L283.602,5.371L286.723,5.901L289.832,6.518L292.925,7.221L296.001,8.01L299.058,8.884L302.094,9.844L305.108,10.89L308.097,12.022L311.06,13.238L313.994,14.54L316.899,15.928L319.771,17.4L322.651,19.002L325.471,20.717L328.229,22.537L330.925,24.452L333.56,26.454L336.132,28.535L338.641,30.686L341.086,32.9L344.545,36.198L347.908,39.578L351.175,43.036L354.344,46.571L357.414,50.18L360.385,53.861L363.255,57.613L366.023,61.433L368.689,65.318L371.251,69.267L373.709,73.278L376.061,77.348L378.307,81.475L380.444,85.657L382.474,89.892L384.394,94.177L386.203,98.511L387.9,102.891L389.486,107.316L390.957,111.782L392.314,116.288L393.556,120.832L394.681,125.411L395.689,130.024L396.578,134.667L397.347,139.34L397.996,144.039L398.524,148.764L398.929,153.51L399.211,158.277L399.368,163.062L399.4,167.863L387.78,273.997L380.228,274.491L375.955,241.658L376.373,237.075L376.734,232.372L377.018,227.581L377.2,222.734L377.26,217.861L377.174,212.994L376.922,208.165L376.726,205.774L376.479,203.404L376.18,201.059L375.825,198.743L375.412,196.461L374.938,194.214L374.399,192.009L373.793,189.848L373.118,187.736L372.371,185.677L371.548,183.673L370.648,181.73L369.667,179.852L368.602,178.041L367.451,176.303L366.212,174.64L364.88,173.058L363.454,171.559L291.664,154.279L363.934,121.197L335.688,68.013L332.785,66.091L329.795,64.273L326.726,62.56L323.583,60.955L320.375,59.46L317.109,58.078L313.79,56.81L310.427,55.658L307.027,54.626L303.596,53.715L300.142,52.927L296.671,52.264L293.191,51.73L289.708,51.325L286.231,51.052L282.765,50.914L279.318,50.912L275.896,51.049L272.508,51.327L269.16,51.748L265.859,52.315L262.611,53.029L259.425,53.893L256.307,54.909L253.265,56.08L250.304,57.406L247.433,58.892L246.033,59.695L244.658,60.538L243.309,61.422L241.987,62.347L240.692,63.314L239.426,64.322L238.189,65.372L236.982,66.464L235.806,67.599L234.663,68.776Z" style="fill:rgba(165,178,222,0.1);stroke:rgba(0,0,0,0.2);stroke-width:0.72px;"/>
        </g>
        <g transform="matrix(0.708662,0,0,1.00225,0,0)">
            <path d="M611.405,66.788L612.358,67.725L613.271,68.695L614.146,69.696L614.982,70.728L615.779,71.79L616.539,72.88L617.945,75.144L619.202,77.512L620.311,79.977L621.275,82.531L622.096,85.166L622.775,87.875L623.316,90.651L623.719,93.486L623.987,96.372L624.121,99.303L624.124,102.27L623.998,105.265L623.745,108.282L623.367,111.313L622.865,114.351L622.242,117.387L621.5,120.415L620.641,123.426L619.666,126.414L618.578,129.37L617.38,132.288L616.071,135.159L614.656,137.977L613.136,140.734L611.512,143.421L609.787,146.032L607.963,148.56L606.042,150.996L604.025,153.333L669.903,115.784L670.911,112.697L671.796,109.593L672.56,106.478L673.202,103.352L673.724,100.219L674.128,97.083L674.414,93.946L674.582,90.811L674.635,87.682L674.573,84.561L674.397,81.452L674.108,78.357L673.708,75.28L673.196,72.223L672.575,69.19L671.844,66.184L671.006,63.208L670.061,60.264L669.01,57.356L667.854,54.487L666.594,51.66L665.231,48.878L663.766,46.144L662.201,43.461L660.535,40.832L658.771,38.26L656.908,35.749L654.949,33.301L652.894,30.919L650.744,28.606L648.5,26.366L646.163,24.201L643.774,22.171L641.288,20.252L638.713,18.442L636.059,16.742L633.337,15.15L630.556,13.666L627.726,12.29L624.856,11.021L621.856,9.807L618.832,8.681L615.786,7.643L612.721,6.693L609.637,5.831L606.537,5.057L603.422,4.371L600.295,3.772L597.158,3.261L594.011,2.837L590.857,2.501L587.699,2.251L584.537,2.089L581.373,2.014L578.21,2.025L575.049,2.124L571.893,2.309L568.742,2.58L565.599,2.938L562.466,3.383L559.345,3.913L556.236,4.53L553.143,5.233L550.067,6.022L547.01,6.896L543.974,7.856L540.96,8.902L537.971,10.033L535.008,11.25L532.074,12.552L529.169,13.94L526.297,15.412L523.417,17.014L520.597,18.729L517.839,20.549L515.143,22.463L512.508,24.466L509.936,26.547L507.427,28.698L504.982,30.912L501.523,34.21L498.16,37.59L494.893,41.048L491.724,44.583L488.654,48.192L485.683,51.873L482.813,55.625L480.045,59.445L477.379,63.33L474.816,67.279L472.359,71.29L470.007,75.36L467.761,79.487L465.623,83.669L463.594,87.904L461.674,92.189L459.865,96.523L458.168,100.903L456.582,105.328L455.111,109.794L453.754,114.3L452.512,118.844L451.387,123.423L450.379,128.036L449.49,132.679L448.721,137.352L448.072,142.051L447.544,146.776L447.139,151.522L446.857,156.289L446.7,161.074L446.668,165.875L458.288,272.009L465.84,272.503L470.113,239.67L469.695,235.087L469.333,230.384L469.05,225.593L468.868,220.746L468.808,215.873L468.893,211.006L469.146,206.177L469.342,203.786L469.589,201.416L469.888,199.071L470.242,196.755L470.656,194.473L471.13,192.226L471.669,190.021L472.275,187.86L472.95,185.748L473.697,183.689L474.519,181.685L475.42,179.742L476.401,177.864L477.466,176.053L478.617,174.315L479.856,172.652L481.188,171.07L482.614,169.571L554.403,152.291L482.134,119.209L510.38,66.025L513.283,64.103L516.273,62.285L519.342,60.572L522.485,58.967L525.693,57.472L528.959,56.09L532.278,54.822L535.641,53.67L539.041,52.638L542.472,51.727L545.926,50.939L549.397,50.276L552.877,49.742L556.36,49.337L559.837,49.064L563.303,48.926L566.75,48.924L570.172,49.061L573.56,49.339L576.908,49.76L580.209,50.327L583.456,51.041L586.643,51.905L589.761,52.921L592.803,54.092L595.764,55.418L598.635,56.904L600.035,57.707L601.41,58.55L602.759,59.434L604.081,60.359L605.376,61.326L606.642,62.334L607.879,63.384L609.086,64.476L610.262,65.611L611.405,66.788Z" style="fill:rgba(165,178,222,0.1);stroke:rgba(0,0,0,0.2);stroke-width:0.72px;"/>
        </g>
        <g transform="matrix(0.708662,0,0,1.00225,0,0)">
            <path d="M607.232,775.127L608.185,774.19L609.098,773.221L609.972,772.22L610.808,771.188L611.606,770.126L612.366,769.035L613.772,766.771L615.028,764.403L616.138,761.939L617.102,759.385L617.923,756.75L618.602,754.04L619.143,751.264L619.546,748.429L619.813,745.543L619.948,742.613L619.951,739.646L619.825,736.65L619.572,733.633L619.194,730.602L618.692,727.565L618.069,724.528L617.327,721.501L616.468,718.489L615.493,715.502L614.405,712.545L613.206,709.628L611.898,706.756L610.483,703.938L608.962,701.182L607.339,698.494L605.614,695.883L603.79,693.356L601.869,690.92L599.852,688.583L665.73,726.132L666.738,729.219L667.623,732.322L668.386,735.438L669.029,738.564L669.551,741.696L669.955,744.833L670.24,747.97L670.409,751.104L670.462,754.234L670.4,757.354L670.224,760.464L669.935,763.558L669.535,766.636L669.023,769.692L668.401,772.725L667.671,775.732L666.833,778.708L665.888,781.652L664.837,784.56L663.681,787.429L662.421,790.256L661.058,793.038L659.593,795.772L658.028,798.455L656.362,801.083L654.598,803.655L652.735,806.167L650.776,808.615L648.721,810.997L646.571,813.309L644.327,815.55L641.99,817.714L639.601,819.744L637.115,821.663L634.539,823.473L631.886,825.174L629.164,826.766L626.383,828.25L623.553,829.626L620.683,830.895L617.683,832.109L614.659,833.235L611.613,834.273L608.547,835.222L605.464,836.084L602.364,836.858L599.249,837.545L596.122,838.143L592.984,838.654L589.838,839.078L586.684,839.415L583.526,839.664L580.364,839.826L577.2,839.902L574.037,839.89L570.876,839.792L567.72,839.607L564.569,839.335L561.426,838.977L558.293,838.533L555.171,838.002L552.063,837.385L548.97,836.683L545.894,835.894L542.837,835.019L539.801,834.059L536.787,833.013L533.798,831.882L530.835,830.665L527.901,829.363L524.996,827.976L522.124,826.504L519.244,824.901L516.424,823.186L513.666,821.367L510.969,819.452L508.335,817.45L505.763,815.369L503.254,813.217L500.809,811.004L497.35,807.705L493.986,804.326L490.72,800.868L487.551,797.333L484.481,793.724L481.51,790.042L478.64,786.291L475.871,782.471L473.206,778.585L470.643,774.636L468.186,770.626L465.834,766.556L463.588,762.429L461.45,758.247L459.421,754.012L457.501,749.726L455.692,745.393L453.994,741.012L452.409,736.588L450.938,732.122L449.581,727.615L448.339,723.072L447.214,718.492L446.206,713.88L445.317,709.236L444.548,704.563L443.899,699.864L443.371,695.14L442.966,690.393L442.684,685.627L442.527,680.842L442.495,676.041L454.115,569.907L461.667,569.412L465.94,602.245L465.522,606.829L465.16,611.531L464.877,616.322L464.695,621.17L464.635,626.043L464.72,630.91L464.973,635.739L465.169,638.13L465.415,640.5L465.715,642.844L466.069,645.16L466.483,647.443L466.957,649.689L467.496,651.894L468.101,654.055L468.776,656.167L469.524,658.227L470.346,660.23L471.247,662.173L472.228,664.052L473.293,665.862L474.443,667.601L475.683,669.263L477.015,670.846L478.441,672.344L550.23,689.625L477.96,722.706L506.207,775.891L509.11,777.813L512.1,779.631L515.169,781.344L518.311,782.948L521.52,784.443L524.786,785.826L528.105,787.094L531.468,788.245L534.868,789.277L538.299,790.189L541.753,790.977L545.224,791.639L548.704,792.174L552.187,792.579L555.664,792.852L559.13,792.99L562.577,792.992L565.998,792.854L569.387,792.576L572.735,792.155L576.036,791.589L579.283,790.874L582.469,790.01L585.587,788.994L588.63,787.824L591.591,786.497L594.462,785.012L595.862,784.209L597.237,783.365L598.586,782.481L599.908,781.556L601.203,780.589L602.469,779.581L603.706,778.531L604.913,777.439L606.089,776.305L607.232,775.127Z" style="fill:rgba(165,178,222,0.1);stroke:rgba(0,0,0,0.2);stroke-width:0.72px;"/>
        </g>
        <g transform="matrix(0.708662,0,0,1.00225,0,0)">
            <path d="M230.49,777.115L229.537,776.178L228.624,775.209L227.749,774.208L226.913,773.176L226.116,772.114L225.356,771.023L223.95,768.76L222.693,766.391L221.584,763.927L220.62,761.373L219.799,758.738L219.119,756.028L218.579,753.252L218.176,750.418L217.908,747.531L217.774,744.601L217.771,741.634L217.896,738.638L218.15,735.621L218.528,732.59L219.03,729.553L219.653,726.516L220.395,723.489L221.254,720.477L222.229,717.49L223.316,714.533L224.515,711.616L225.824,708.744L227.239,705.926L228.759,703.17L230.383,700.482L232.108,697.871L233.932,695.344L235.853,692.908L237.869,690.571L171.992,728.12L170.984,731.207L170.099,734.31L169.335,737.426L168.693,740.552L168.171,743.684L167.767,746.821L167.481,749.958L167.313,753.092L167.26,756.222L167.322,759.342L167.498,762.452L167.786,765.547L168.187,768.624L168.699,771.68L169.32,774.713L170.051,777.72L170.889,780.696L171.834,783.64L172.885,786.548L174.041,789.417L175.301,792.244L176.664,795.026L178.129,797.76L179.694,800.443L181.36,803.071L183.124,805.643L184.986,808.155L186.946,810.603L189.001,812.985L191.151,815.297L193.395,817.538L195.732,819.703L198.12,821.732L200.607,823.651L203.182,825.461L205.836,827.162L208.558,828.754L211.339,830.238L214.169,831.614L217.039,832.883L220.039,834.097L223.063,835.223L226.109,836.261L229.174,837.21L232.258,838.072L235.358,838.846L238.473,839.533L241.6,840.131L244.737,840.643L247.884,841.066L251.037,841.403L254.196,841.652L257.358,841.815L260.522,841.89L263.685,841.878L266.845,841.78L270.002,841.595L273.153,841.323L276.296,840.965L279.429,840.521L282.55,839.99L285.659,839.373L288.752,838.671L291.828,837.882L294.885,837.007L297.921,836.047L300.935,835.001L303.924,833.87L306.886,832.653L309.821,831.351L312.726,829.964L315.598,828.492L318.478,826.889L321.297,825.174L324.056,823.355L326.752,821.44L329.387,819.438L331.959,817.357L334.468,815.205L336.913,812.992L340.372,809.693L343.735,806.314L347.002,802.856L350.171,799.321L353.241,795.712L356.212,792.03L359.082,788.279L361.85,784.459L364.516,780.573L367.078,776.624L369.536,772.614L371.888,768.544L374.134,764.417L376.271,760.235L378.301,756L380.22,751.715L382.03,747.381L383.727,743L385.312,738.576L386.784,734.11L388.141,729.604L389.383,725.06L390.508,720.48L391.515,715.868L392.404,711.224L393.174,706.552L393.823,701.852L394.351,697.128L394.756,692.381L395.038,687.615L395.195,682.83L395.227,678.029L383.607,571.895L376.055,571.4L371.782,604.233L372.2,608.817L372.561,613.519L372.845,618.31L373.027,623.158L373.087,628.031L373.001,632.898L372.749,637.727L372.553,640.118L372.306,642.488L372.007,644.832L371.652,647.148L371.239,649.431L370.764,651.677L370.226,653.882L369.62,656.043L368.945,658.155L368.198,660.215L367.375,662.218L366.475,664.161L365.494,666.04L364.429,667.85L363.278,669.589L362.038,671.251L360.707,672.834L359.28,674.332L287.491,691.613L359.761,724.694L331.515,777.879L328.612,779.801L325.622,781.619L322.553,783.332L319.41,784.936L316.202,786.431L312.935,787.814L309.617,789.082L306.254,790.233L302.854,791.266L299.423,792.177L295.968,792.965L292.498,793.627L289.018,794.162L285.535,794.567L282.057,794.84L278.592,794.978L275.145,794.98L271.723,794.843L268.335,794.565L264.987,794.143L261.686,793.577L258.438,792.862L255.252,791.998L252.134,790.982L249.092,789.812L246.131,788.485L243.26,787L241.86,786.197L240.485,785.353L239.136,784.469L237.814,783.544L236.519,782.578L235.252,781.569L234.016,780.519L232.809,779.427L231.633,778.293L230.49,777.115Z" style="fill:rgba(165,178,222,0.1);stroke:rgba(0,0,0,0.2);stroke-width:0.72px;"/>
        </g>
        <g transform="matrix(0.708662,0,0,1.00225,0,0)">
            <path d="M420.632,399.759L396.55,423.841L420.632,447.924L444.715,423.841L420.632,399.759Z" style="fill:rgba(165,178,222,0.1);stroke:rgba(0,0,0,0.2);stroke-width:0.72px;"/>
        </g>
        <g transform="matrix(0.708662,0,0,1.00225,0,0)">
            <path d="M468.759,414.133L473.429,413.505L478.304,412.795L483.323,411.982L488.423,411.049L493.542,409.975L498.619,408.742L501.122,408.059L503.591,407.329L506.018,406.55L508.396,405.719L510.716,404.834L512.972,403.892L515.155,402.891L517.258,401.829L519.273,400.702L521.191,399.51L523.006,398.248L524.71,396.916L526.294,395.51L527.751,394.028L529.074,392.467L530.254,390.827L531.284,389.102L532.156,387.293L532.531,386.355L532.863,385.395L533.152,384.413L533.396,383.408L525.474,374.027L546.27,307.123L478.387,324.57L468.513,317.577L467.312,318.269L466.131,319.005L463.836,320.605L461.632,322.367L459.519,324.28L457.503,326.33L455.586,328.507L453.771,330.799L452.061,333.194L450.458,335.681L448.967,338.247L447.59,340.881L446.329,343.571L445.188,346.306L444.171,349.073L443.279,351.861L442.516,354.659L441.885,357.454L441.389,360.236L441.031,362.991L440.814,365.708L440.741,368.377L440.815,370.984L441.038,373.519L441.415,375.969L441.947,378.322L442.639,380.568L443.045,381.647L443.492,382.694L443.98,383.709L444.51,384.689L445.082,385.633L445.696,386.541L446.353,387.409L447.053,388.237L447.797,389.024L448.584,389.767L449.416,390.466L450.292,391.119L480.537,364.728L495.338,359.724L483.404,378.799L465.841,396.101L468.759,414.133Z" style="fill:rgba(165,178,222,0.1);stroke:rgba(0,0,0,0.2);stroke-width:0.72px;"/>
        </g>
        <g transform="matrix(0.708662,0,0,1.00225,0,0)">
            <path d="M312.781,374.883L313.472,376.084L314.208,377.265L315.809,379.559L317.571,381.764L319.483,383.876L321.534,385.893L323.711,387.81L326.003,389.625L328.398,391.335L330.884,392.938L333.45,394.429L336.084,395.806L338.775,397.067L341.509,398.207L344.277,399.225L347.065,400.117L349.863,400.88L352.658,401.511L355.439,402.007L358.194,402.365L360.912,402.582L363.58,402.655L366.188,402.581L368.722,402.358L371.172,401.981L373.526,401.449L375.772,400.757L376.851,400.351L377.898,399.904L378.912,399.416L379.893,398.886L380.837,398.314L381.744,397.699L382.613,397.043L383.441,396.342L384.228,395.599L384.971,394.811L385.67,393.98L386.323,393.104L359.931,362.859L354.928,348.058L374.002,359.992L391.305,377.555L409.337,374.637L408.709,369.967L407.998,365.092L407.186,360.073L406.252,354.973L405.179,349.854L403.945,344.777L403.263,342.274L402.533,339.805L401.754,337.378L400.923,335L400.038,332.679L399.096,330.424L398.095,328.241L397.032,326.138L395.906,324.123L394.713,322.205L393.452,320.39L392.119,318.686L390.713,317.102L389.231,315.645L387.671,314.322L386.03,313.142L384.306,312.112L382.497,311.239L381.559,310.865L380.599,310.533L379.617,310.244L378.611,310L369.23,317.922L302.327,297.126L319.774,365.009L312.781,374.883Z" style="fill:rgba(165,178,222,0.1);stroke:rgba(0,0,0,0.2);stroke-width:0.72px;"/>
        </g>
        <g transform="matrix(0.708662,0,0,1.00225,0,0)">
            <path d="M461.598,535.086L470.979,527.164L537.883,547.96L520.436,480.076L527.428,470.203L526.737,469.001L526.001,467.821L524.401,465.526L522.639,463.321L520.726,461.209L518.676,459.193L516.499,457.276L514.207,455.461L511.812,453.75L509.325,452.148L506.759,450.657L504.125,449.279L501.435,448.019L498.7,446.878L495.933,445.86L493.145,444.969L490.347,444.206L487.551,443.575L484.77,443.079L482.015,442.721L479.297,442.504L476.629,442.431L474.022,442.504L471.487,442.728L469.037,443.105L466.684,443.637L464.438,444.328L463.359,444.735L462.312,445.182L461.297,445.67L460.317,446.2L459.372,446.772L458.465,447.386L457.597,448.043L456.769,448.743L455.982,449.487L455.238,450.274L454.539,451.106L453.887,451.982L480.278,482.227L485.281,497.028L466.207,485.093L448.905,467.53L430.873,470.449L431.501,475.119L432.211,479.994L433.024,485.013L433.957,490.113L435.031,495.232L436.264,500.308L436.947,502.811L437.676,505.28L438.455,507.708L439.286,510.085L440.172,512.406L441.114,514.662L442.115,516.845L443.177,518.948L444.304,520.962L445.496,522.881L446.758,524.696L448.09,526.399L449.496,527.983L450.978,529.441L452.538,530.764L454.179,531.944L455.903,532.974L457.713,533.846L458.651,534.221L459.611,534.553L460.593,534.841L461.598,535.086Z" style="fill:rgba(165,178,222,0.1);stroke:rgba(0,0,0,0.2);stroke-width:0.72px;"/>
        </g>
        <g transform="matrix(0.708662,0,0,1.00225,0,0)">
            <path d="M202.105,327.878L225.232,291.559L183.422,189.893L267.398,214.323L274.611,224.07L290.376,229.151L305.588,215.059L315.177,207.554L333.772,208.638L344.196,220.312L342.361,242.826L326.435,243.66L314.427,237.573L301.919,249.997L302.74,279.256L289.481,278.923L273.928,252.092L244.429,223.71L208.886,219.333L275.342,297.295L274.993,308.721L273.468,308.248L271.884,307.816L270.248,307.429L268.566,307.085L266.845,306.787L265.092,306.535L263.314,306.331L261.517,306.176L259.709,306.071L257.897,306.016L256.086,306.014L254.285,306.065L252.499,306.171L250.736,306.332L249.002,306.549L247.305,306.825L245.65,307.159L244.046,307.553L242.498,308.008L241.014,308.526L239.6,309.106L238.263,309.752L237.01,310.462L235.848,311.24L234.784,312.085L233.824,312.999L232.976,313.983L232.246,315.038L231.64,316.166L231.167,317.367L230.832,318.642L230.642,319.993L226.535,350.841L202.105,327.878Z" style="fill:rgba(165,178,222,0.1);stroke:rgba(0,0,0,0.2);stroke-width:0.72px;"/>
        </g>
        <g transform="matrix(0.708662,0,0,1.00225,0,0)">
            <path d="M295.641,539.904L363.525,522.456L373.398,529.449L374.6,528.758L375.78,528.022L378.075,526.422L380.28,524.659L382.392,522.747L384.408,520.697L386.325,518.519L388.14,516.227L389.85,513.832L391.453,511.346L392.944,508.78L394.322,506.146L395.582,503.456L396.723,500.721L397.74,497.954L398.632,495.165L399.395,492.368L400.026,489.572L400.522,486.791L400.88,484.036L401.097,481.318L401.17,478.65L401.097,476.043L400.873,473.508L400.496,471.058L399.964,468.704L399.272,466.459L398.866,465.38L398.419,464.332L397.931,463.318L397.401,462.338L396.829,461.393L396.215,460.486L395.558,459.618L394.858,458.789L394.114,458.003L393.327,457.259L392.495,456.56L391.619,455.907L361.374,482.299L346.573,487.302L358.508,468.228L376.071,450.925L373.152,432.893L368.482,433.521L363.607,434.232L358.588,435.044L353.488,435.978L348.369,437.052L343.293,438.285L340.79,438.968L338.321,439.697L335.893,440.476L333.515,441.307L331.195,442.192L328.939,443.134L326.756,444.135L324.653,445.198L322.639,446.324L320.72,447.517L318.905,448.779L317.202,450.111L315.617,451.517L314.16,452.999L312.837,454.559L311.657,456.2L310.627,457.924L309.755,459.734L309.38,460.671L309.048,461.631L308.76,462.614L308.515,463.619L316.437,473L295.641,539.904Z" style="fill:rgba(165,178,222,0.1);stroke:rgba(0,0,0,0.2);stroke-width:0.72px;"/>
        </g>
        <g transform="matrix(0.708662,0,0,1.00225,0,0)">
            <path d="M515.773,203.537L552.091,226.663L653.757,184.853L629.328,268.829L619.581,276.042L614.499,291.807L628.591,307.019L636.096,316.609L635.012,335.204L623.338,345.627L600.824,343.792L599.99,327.866L606.077,315.858L593.653,303.351L564.394,304.171L564.728,290.913L591.558,275.36L619.94,245.861L624.318,210.318L546.355,276.774L534.93,276.424L535.403,274.899L535.834,273.315L536.222,271.679L536.566,269.997L536.864,268.276L537.115,266.523L537.319,264.745L537.475,262.949L537.58,261.141L537.634,259.328L537.636,257.518L537.585,255.716L537.48,253.93L537.319,252.167L537.101,250.433L536.826,248.736L536.492,247.081L536.097,245.477L535.642,243.929L535.125,242.445L534.544,241.031L533.899,239.694L533.188,238.441L532.411,237.28L531.566,236.215L530.651,235.256L529.667,234.407L528.612,233.677L527.484,233.072L526.284,232.598L525.008,232.263L523.657,232.074L492.809,227.966L515.773,203.537Z" style="fill:rgba(165,178,222,0.1);stroke:rgba(0,0,0,0.2);stroke-width:0.72px;"/>
        </g>
        <g transform="matrix(0.708662,0,0,1.00225,0,0)">
            <path d="M639.883,518.828L616.756,555.147L658.566,656.813L574.59,632.383L567.378,622.636L551.612,617.555L536.4,631.647L526.811,639.151L508.216,638.068L497.792,626.394L499.627,603.88L515.554,603.046L527.561,609.133L540.069,596.708L539.248,567.45L552.507,567.783L568.06,594.614L597.559,622.996L633.102,627.373L566.646,549.41L566.995,537.985L568.52,538.458L570.104,538.889L571.74,539.277L573.422,539.621L575.143,539.919L576.896,540.171L578.674,540.375L580.471,540.53L582.279,540.635L584.091,540.69L585.902,540.692L587.703,540.641L589.489,540.535L591.252,540.374L592.986,540.156L594.683,539.881L596.338,539.547L597.942,539.153L599.49,538.698L600.975,538.18L602.388,537.599L603.725,536.954L604.978,536.244L606.14,535.466L607.204,534.621L608.164,533.707L609.012,532.723L609.742,531.667L610.348,530.54L610.821,529.339L611.156,528.064L611.346,526.713L615.453,495.865L639.883,518.828Z" style="fill:rgba(165,178,222,0.1);stroke:rgba(0,0,0,0.2);stroke-width:0.72px;"/>
        </g>
        <g transform="matrix(0.708662,0,0,1.00225,0,0)">
            <path d="M324.726,641.07L288.408,617.944L186.742,659.753L211.171,575.778L220.919,568.565L226,552.8L211.908,537.587L204.403,527.998L205.487,509.403L217.161,498.98L239.675,500.814L240.509,516.741L234.422,528.748L246.846,541.256L276.105,540.436L275.771,553.694L248.941,569.247L220.559,598.746L216.181,634.289L294.144,567.833L305.569,568.183L305.096,569.707L304.665,571.291L304.277,572.928L303.934,574.61L303.635,576.331L303.384,578.084L303.18,579.862L303.025,581.658L302.919,583.466L302.865,585.279L302.863,587.089L302.914,588.891L303.02,590.677L303.18,592.44L303.398,594.173L303.673,595.871L304.008,597.525L304.402,599.13L304.857,600.678L305.374,602.162L305.955,603.576L306.6,604.913L307.311,606.165L308.088,607.327L308.934,608.391L309.848,609.351L310.832,610.2L311.887,610.93L313.015,611.535L314.216,612.009L315.491,612.344L316.842,612.533L347.69,616.641L324.726,641.07Z" style="fill:rgba(165,178,222,0.1);stroke:rgba(0,0,0,0.2);stroke-width:0.72px;"/>
        </g>
    </g>
</svg>
